# xmcd
#
# Track frame offsets:
#	192
#	13955
#	27230
#	40695
#	53600
#	66572
#	80652
#	93315
#	107782
#	120245
#	132732
#	144152
#	156567
#	167605
#	178412
#	189615
#	204807
#	218880
#	232305
#	245182
#	257927
#	270675
#	283540
#
# Disc length: 3969 seconds
#
# Revision: 0
# Processed by: cddbd v1.4PL0 Copyright (c) Steve Scherf et al.
# Submitted via: dBpowerAMP V4.0
#
DISCID=610f7f17
DTITLE=Alberta Hunter - Young Alberta Hunter: The Twenties
DYEAR=1900
DGENRE=Blues
TTITLE0=You Can't Tell the Difference After Dark
TTITLE1=Second Hand Man
TTITLE2=Send Me a Man
TTITLE3=Chirpin' the Blues
TTITLE4=Downhearted Blues, 1939 [1939]
TTITLE5=I'll See You Go
TTITLE6=Fine and Mellow
TTITLE7=Yelping Blues
TTITLE8=Someday, Sweetheart
TTITLE9=The Love I Have for You
TTITLE10=My Castle's Rockin'
TTITLE11=Boogie Woogie Swing
TTITLE12=I Won't Let You Down
TTITLE13=Take Your Big Hands Off
TTITLE14=He's Got a Punch Like Joe Louis
TTITLE15=How Long, Sweet Daddy, How Long?
TTITLE16=Downhearted Blues, 1922
TTITLE17=Gonna Have You, Ain't Gonna Leave You Alone
TTITLE18=You Can Have My Man If He Comes to See You, Too
TTITLE19=Bring It With You When You Come
TTITLE20=Nobody Knows the Way I Feel This Morning
TTITLE21=Early Every Morn
TTITLE22=I'm Going to See My Ma
EXTD=
EXTT0=
EXTT1=
EXTT2=
EXTT3=
EXTT4=
EXTT5=
EXTT6=
EXTT7=
EXTT8=
EXTT9=
EXTT10=
EXTT11=
EXTT12=
EXTT13=
EXTT14=
EXTT15=
EXTT16=
EXTT17=
EXTT18=
EXTT19=
EXTT20=
EXTT21=
EXTT22=
PLAYORDER=
